<mxfile host="app.diagrams.net" modified="2021-10-19T15:24:42.192Z" agent="5.0 (Windows)" etag="dH3RlOuCykRN79vR_W8E" version="15.5.6" type="github">
  <diagram id="1sLvndAOdEHct6RrbISj" name="Page-1">
    <mxGraphModel dx="782" dy="724" grid="1" gridSize="10" guides="1" tooltips="1" connect="1" arrows="1" fold="1" page="1" pageScale="1" pageWidth="827" pageHeight="1169" math="0" shadow="0">
      <root>
        <mxCell id="0" />
        <mxCell id="1" parent="0" />
        <mxCell id="bLlYufeuXNpu6gjrg3gA-1" value="user" style="rounded=0;whiteSpace=wrap;html=1;" parent="1" vertex="1">
          <mxGeometry x="340" y="290" width="120" height="60" as="geometry" />
        </mxCell>
        <mxCell id="xl6kgd3hFvDkcjYYUJ8C-1" value="account" style="rounded=0;whiteSpace=wrap;html=1;" parent="1" vertex="1">
          <mxGeometry x="560" y="290" width="120" height="60" as="geometry" />
        </mxCell>
        <mxCell id="xl6kgd3hFvDkcjYYUJ8C-2" value="" style="endArrow=none;html=1;rounded=0;entryX=0;entryY=0.5;entryDx=0;entryDy=0;exitX=1;exitY=0.5;exitDx=0;exitDy=0;" parent="1" source="bLlYufeuXNpu6gjrg3gA-1" target="xl6kgd3hFvDkcjYYUJ8C-1" edge="1">
          <mxGeometry width="50" height="50" relative="1" as="geometry">
            <mxPoint x="370" y="400" as="sourcePoint" />
            <mxPoint x="420" y="350" as="targetPoint" />
          </mxGeometry>
        </mxCell>
        <mxCell id="VckciZYnxY1UEIAY46S0-1" value="account" style="rounded=0;whiteSpace=wrap;html=1;" vertex="1" parent="1">
          <mxGeometry x="130" y="470" width="120" height="60" as="geometry" />
        </mxCell>
        <mxCell id="xl6kgd3hFvDkcjYYUJ8C-3" value="document" style="rounded=0;whiteSpace=wrap;html=1;" vertex="1" parent="1">
          <mxGeometry x="340" y="80" width="120" height="60" as="geometry" />
        </mxCell>
        <mxCell id="xl6kgd3hFvDkcjYYUJ8C-4" value="" style="endArrow=none;html=1;rounded=0;entryX=0.5;entryY=1;entryDx=0;entryDy=0;exitX=0.5;exitY=0;exitDx=0;exitDy=0;" edge="1" parent="1" source="bLlYufeuXNpu6gjrg3gA-1" target="xl6kgd3hFvDkcjYYUJ8C-3">
          <mxGeometry width="50" height="50" relative="1" as="geometry">
            <mxPoint x="370" y="400" as="sourcePoint" />
            <mxPoint x="420" y="350" as="targetPoint" />
          </mxGeometry>
        </mxCell>
      </root>
    </mxGraphModel>
  </diagram>
</mxfile>
